<svg width="800px" height="800px" fill="#000000" aria-hidden="true" focusable="false" role="img" version="1.1" viewBox="0 0 14 14" xmlns="http://www.w3.org/2000/svg">
 <path d="m4.2 3.15h-2.8064c-0.7648 0-1.3935 0.62863-1.3935 1.4041v6.9917c0 0.77615 0.62391 1.4041 1.3935 1.4041h0.70643v-9.7999h0.69999v9.7999h8.3999v-9.7999h0.69999v9.7999h0.70643c0.7648 0 1.3935-0.62863 1.3935-1.4041v-6.9917c0-0.77615-0.62391-1.4041-1.3935-1.4041h-2.8064v-0.69999c0-0.77858-0.6262-1.4-1.3987-1.4h-2.8026c-0.77797 0-1.3987 0.62679-1.3987 1.4zm1.4-0.69999h2.8v0.69999h-2.8z" fill="#fff" stroke-width="1.1667"/>
</svg>
