<svg class="si-glyph si-glyph-house" width="800px" height="800px" fill="#000000" version="1.1" viewBox="0 -.5 17 17" xmlns="http://www.w3.org/2000/svg">
 <g id="SVGRepo_iconCarrier" transform="matrix(1.0623 0 0 1.0623 -1.0605 -1.0539)" fill="#fff">
  <title>984</title>
  <g fill="#fff" fill-rule="evenodd">
   <g transform="translate(1,1)" fill="#fff">
    <path class="si-glyph-fill" d="m15.794 7.77-3.81-3.906v-2.8469l-0.968 0.022v1.7279l-2.514-2.522c-0.278-0.276-0.726-0.276-1.003 0l-7.293 7.526c-0.275 0.277-0.274 0.727 0 1.002 0.276 0.276 0.727 0.276 1.003-1e-3l6.791-6.79 6.793 6.79c0.138 0.138 0.318 0.208 0.5 0.208 0.181 0 0.361-0.068 0.501-0.207 0.274-0.277 0.274-0.728 0-1.003z"/>
    <path class="si-glyph-fill" d="m3.043 8.532v5.69c0 0.394 0.21802 0.78581 0.56702 0.78581h2.277l0.063976-3.993h4.074l-0.0019 3.993h2.303c0.349 0 0.63195-0.39081 0.63195-0.78581v-5.691l-4.958-4.906z"/>
   </g>
  </g>
 </g>
</svg>
