<svg enable-background="new 0 0 297 297" version="1.1" viewBox="0 0 297 297" xml:space="preserve" xmlns="http://www.w3.org/2000/svg">
<g fill="#fff">
	<path d="m148.5 81.888c-36.73 0-66.612 29.882-66.612 66.612s29.882 66.612 66.612 66.612 66.612-29.882 66.612-66.612-29.882-66.612-66.612-66.612zm0 113.04c-25.599 0-46.427-20.827-46.427-46.427s20.827-46.427 46.427-46.427 46.427 20.827 46.427 46.427-20.828 46.427-46.427 46.427z"/>
	<path d="m148.5 113.43c-19.339 0-35.072 15.733-35.072 35.072s15.733 35.072 35.072 35.072 35.072-15.733 35.072-35.072-15.733-35.072-35.072-35.072zm0 49.959c-8.208 0-14.887-6.679-14.887-14.887s6.679-14.887 14.887-14.887 14.887 6.679 14.887 14.887-6.679 14.887-14.887 14.887z"/>
	<path d="m288.79 182.33-18.21-10.514c1.454-7.658 2.188-15.469 2.188-23.313s-0.734-15.655-2.188-23.313l18.21-10.514c2.318-1.338 4.009-3.542 4.702-6.129 0.693-2.585 0.33-5.34-1.008-7.658l-30.757-53.273c-2.787-4.826-8.955-6.48-13.787-3.694l-18.234 10.526c-11.872-10.249-25.607-18.192-40.355-23.332v-21.019c0-5.574-4.519-10.093-10.093-10.093h-61.514c-5.574 0-10.093 4.519-10.093 10.093v21.022c-14.748 5.14-28.483 13.082-40.355 23.332l-18.234-10.527c-4.829-2.788-11.001-1.133-13.787 3.694l-30.757 53.273c-1.338 2.318-1.701 5.073-1.008 7.658 0.693 2.586 2.384 4.79 4.702 6.129l18.21 10.514c-1.454 7.658-2.188 15.469-2.188 23.313s0.734 15.655 2.188 23.313l-18.21 10.514c-2.318 1.338-4.009 3.542-4.702 6.129-0.693 2.585-0.33 5.34 1.008 7.658l30.757 53.273c2.787 4.827 8.957 6.482 13.787 3.694l18.234-10.526c11.872 10.249 25.607 18.192 40.355 23.332v21.022c0 5.574 4.519 10.093 10.093 10.093h61.514c5.574 0 10.093-4.519 10.093-10.093v-21.022c14.748-5.14 28.483-13.082 40.355-23.332l18.234 10.526c4.83 2.787 11.001 1.132 13.787-3.694l30.757-53.273c1.338-2.318 1.701-5.073 1.008-7.658-0.693-2.588-2.384-4.792-4.702-6.131zm-39.444-59.681c2.147 8.404 3.236 17.103 3.236 25.855s-1.089 17.45-3.236 25.855c-1.121 4.384 0.814 8.977 4.732 11.239l15.878 9.167-20.664 35.792-15.908-9.184c-3.921-2.262-8.87-1.64-12.104 1.526-12.514 12.244-27.984 21.187-44.735 25.863-4.362 1.217-7.379 5.192-7.379 9.721v18.336h-41.329v-18.336c0-4.529-3.017-8.504-7.379-9.721-16.752-4.676-32.221-13.618-44.735-25.863-3.237-3.166-8.186-3.788-12.104-1.526l-15.908 9.184-20.664-35.792 15.878-9.167c3.918-2.262 5.853-6.855 4.732-11.239-2.147-8.404-3.236-17.103-3.236-25.855s1.089-17.45 3.236-25.855c1.121-4.384-0.814-8.977-4.732-11.239l-15.878-9.167 20.664-35.792 15.908 9.184c3.922 2.263 8.87 1.64 12.104-1.526 12.514-12.244 27.984-21.187 44.735-25.863 4.362-1.217 7.379-5.192 7.379-9.721v-18.336h41.329v18.336c0 4.529 3.017 8.504 7.379 9.721 16.752 4.676 32.221 13.618 44.735 25.863 3.238 3.167 8.186 3.789 12.104 1.526l15.908-9.184 20.664 35.792-15.878 9.167c-3.917 2.262-5.852 6.855-4.732 11.239z"/>
</g>















</svg>
